<svg id="Capa_1" enable-background="new 0 0 510 510" height="512" viewBox="0 0 510 510" width="512" xmlns="http://www.w3.org/2000/svg"><g id="XMLID_2436_"><path id="XMLID_2740_" d="m325.629 264.857c-7.634 21.334-24.265 37.9-45.628 45.452h.001c-11.466 4.052-13.707 19.947-3.378 27.209 4.129 2.902 9.196 3.596 13.907 1.903 29.491-10.604 53.272-34.592 63.614-64.17 1.639-4.688.953-9.705-1.879-13.768-7.02-10.065-22.567-7.995-26.637 3.374z"/><circle id="XMLID_2741_" cx="165" cy="255" r="15"/><circle id="XMLID_2742_" cx="255" cy="165" r="15"/><path id="XMLID_2755_" d="m255 0c-140.931 0-255 114.05-255 255 0 140.932 114.05 255 255 255 140.932 0 255-114.05 255-255 0-140.931-114.049-255-255-255zm0 450c-107.523 0-195-87.477-195-195s87.477-195 195-195 195 87.477 195 195-87.477 195-195 195z"/><path id="XMLID_2758_" d="m255 90c-90.981 0-165 74.019-165 165s74.019 165 165 165 165-74.019 165-165-74.019-165-165-165zm-45 270h-30v-30h30zm-45-60c-24.813 0-45-20.186-45-45 0-24.812 20.187-45 45-45s45 20.188 45 45c0 24.814-20.187 45-45 45zm45-135c0-24.812 20.187-45 45-45s45 20.188 45 45c0 24.814-20.187 45-45 45s-45-20.186-45-45zm75.44 205.306c-25.297 0-45.44-20.653-45.44-45.521 0-19.232 12.057-36.415 30.002-42.76h.001c12.631-4.465 22.867-14.661 27.381-27.276 6.518-18.211 23.957-30.065 43.205-29.742 14.67.245 27.896 7.287 36.286 19.32 32.508 46.62-45.393 125.979-91.435 125.979z"/></g></svg>