<?xml version="1.0" encoding="utf-8"?>
<!-- Generator: Adobe Illustrator 22.1.0, SVG Export Plug-In . SVG Version: 6.00 Build 0)  -->
<svg version="1.1" id="Layer_1" xmlns="http://www.w3.org/2000/svg" xmlns:xlink="http://www.w3.org/1999/xlink" x="0px" y="0px"
	 viewBox="0 0 326.4 38.8" style="enable-background:new 0 0 326.4 38.8;" xml:space="preserve">
<style type="text/css">
	.st0{fill:#E6317B;}
</style>
<g>
	<path class="st0" d="M7.4,35.9c-2.2-0.7-4-1.5-5.4-2.7C1.3,32.7,0.9,32,0.9,31c0-0.7,0.2-1.3,0.6-1.8s0.9-0.7,1.4-0.7
		c0.6,0,1.2,0.2,2,0.7c1.4,1,2.8,1.7,4.3,2.2c1.5,0.5,3.2,0.7,5,0.7c2.3,0,4.1-0.4,5.4-1.2c1.3-0.8,1.9-2,1.9-3.6
		c0-1.2-0.6-2.2-1.8-2.8c-1.2-0.7-3.1-1.3-5.9-1.9c-2.8-0.6-5.1-1.3-6.9-2.1c-1.8-0.8-3.1-1.8-4-3.1c-0.9-1.3-1.3-2.8-1.3-4.8
		c0-2,0.6-3.8,1.7-5.4c1.1-1.6,2.7-2.8,4.7-3.7c2-0.9,4.3-1.3,6.8-1.3c4.6,0,8.3,1.2,11.2,3.7c0.4,0.4,0.7,0.7,0.9,1
		c0.2,0.3,0.3,0.8,0.3,1.3c0,0.7-0.2,1.3-0.6,1.8c-0.4,0.5-0.9,0.7-1.4,0.7c-0.3,0-0.6,0-0.9-0.1c-0.3-0.1-0.6-0.3-1.1-0.5
		c-1.3-1-2.6-1.7-3.8-2.1c-1.2-0.5-2.8-0.7-4.6-0.7c-2.2,0-3.9,0.4-5.2,1.3c-1.3,0.9-1.9,2.1-1.9,3.7c0,1.3,0.6,2.3,1.7,3
		c1.1,0.7,3,1.4,5.7,2c2.9,0.6,5.2,1.4,7,2.1c1.8,0.8,3.1,1.8,4.1,3c0.9,1.2,1.4,2.7,1.4,4.6c0,2-0.6,3.8-1.7,5.3
		c-1.1,1.5-2.7,2.7-4.7,3.6c-2,0.9-4.3,1.3-6.9,1.3C11.9,36.9,9.6,36.6,7.4,35.9z"/>
	<path class="st0" d="M41.5,35.9c-0.6-0.6-0.8-1.3-0.8-2.2v-26h-8.8C30,7.6,29,6.8,29,5.1c0-1.7,1-2.6,2.9-2.6h23.8
		c1.9,0,2.9,0.9,2.9,2.6c0,1.7-1,2.6-2.9,2.6h-8.8v26c0,0.9-0.3,1.7-0.8,2.2c-0.6,0.6-1.3,0.8-2.2,0.8
		C42.9,36.7,42.1,36.5,41.5,35.9z"/>
	<path class="st0" d="M89.1,34c0,0.7-0.3,1.4-0.9,1.9s-1.3,0.8-2,0.8c-0.5,0-1-0.1-1.4-0.4c-0.5-0.3-0.8-0.7-1.1-1.3l-2.9-6.5h-17
		L60.9,35c-0.3,0.6-0.6,1-1.1,1.3c-0.5,0.3-0.9,0.4-1.5,0.4c-0.7,0-1.4-0.3-2-0.8c-0.6-0.5-0.9-1.1-0.9-1.9c0-0.4,0.1-0.8,0.3-1.3
		L69,4.2c0.3-0.6,0.7-1.1,1.3-1.5s1.2-0.5,1.9-0.5s1.3,0.2,1.9,0.5s1,0.8,1.3,1.5l13.4,28.6C89,33.2,89.1,33.6,89.1,34z M65.9,23.7
		h12.7L72.3,9.4L65.9,23.7z"/>
	<path class="st0" d="M121.6,34.3c0,0.7-0.3,1.3-0.9,1.8c-0.6,0.5-1.3,0.7-2.1,0.7c-0.5,0-1-0.1-1.5-0.4c-0.5-0.2-0.9-0.6-1.2-1.1
		l-6.4-9.7c-0.6-1-1.3-1.8-2-2.2c-0.7-0.4-1.7-0.6-2.8-0.6h-4.7v10.8c0,1-0.3,1.7-0.8,2.3c-0.5,0.6-1.3,0.8-2.2,0.8
		c-0.9,0-1.7-0.3-2.2-0.8c-0.6-0.6-0.8-1.3-0.8-2.3V5.5c0-0.9,0.3-1.7,0.8-2.2c0.5-0.5,1.3-0.8,2.2-0.8h12c3.9,0,6.8,0.9,8.8,2.6
		c2,1.7,3,4.2,3,7.4c0,2.6-0.7,4.8-2.2,6.5c-1.5,1.7-3.6,2.8-6.3,3.3c0.9,0.2,1.8,0.6,2.5,1.2c0.7,0.6,1.4,1.4,2.1,2.4l4.4,6.7
		C121.4,33.2,121.6,33.7,121.6,34.3z M113.1,16.8c1.1-0.9,1.6-2.2,1.6-4.1c0-1.9-0.5-3.2-1.6-4.1c-1.1-0.9-2.8-1.3-5.2-1.3h-8.1
		v10.7h8.1C110.3,18.1,112,17.6,113.1,16.8z"/>
	<path class="st0" d="M128.1,35.7c-0.5-0.5-0.8-1.2-0.8-2.2V5.5c0-0.9,0.3-1.7,0.8-2.2c0.5-0.5,1.3-0.8,2.2-0.8h9.5
		c5.6,0,9.9,1.5,12.9,4.5c3.1,3,4.6,7.1,4.6,12.5c0,5.4-1.5,9.6-4.6,12.6s-7.4,4.5-12.9,4.5h-9.5C129.4,36.5,128.6,36.2,128.1,35.7z
		 M151.2,19.5c0-7.9-3.9-11.9-11.7-11.9h-5.9v23.9h5.9C147.3,31.4,151.2,27.5,151.2,19.5z"/>
	<path class="st0" d="M191.4,34.3c0,0.7-0.3,1.3-0.9,1.8c-0.6,0.5-1.3,0.7-2.1,0.7c-0.5,0-1-0.1-1.5-0.4c-0.5-0.2-0.9-0.6-1.2-1.1
		l-6.4-9.7c-0.6-1-1.3-1.8-2-2.2c-0.7-0.4-1.7-0.6-2.8-0.6h-4.7v10.8c0,1-0.3,1.7-0.8,2.3c-0.5,0.6-1.3,0.8-2.2,0.8
		c-0.9,0-1.7-0.3-2.2-0.8c-0.6-0.6-0.8-1.3-0.8-2.3V5.5c0-0.9,0.3-1.7,0.8-2.2c0.5-0.5,1.3-0.8,2.2-0.8h12c3.9,0,6.8,0.9,8.8,2.6
		c2,1.7,3,4.2,3,7.4c0,2.6-0.7,4.8-2.2,6.5c-1.5,1.7-3.6,2.8-6.3,3.3c0.9,0.2,1.8,0.6,2.5,1.2c0.7,0.6,1.4,1.4,2.1,2.4l4.4,6.7
		C191.2,33.2,191.4,33.7,191.4,34.3z M183,16.8c1.1-0.9,1.6-2.2,1.6-4.1c0-1.9-0.5-3.2-1.6-4.1c-1.1-0.9-2.8-1.3-5.2-1.3h-8.1v10.7
		h8.1C180.2,18.1,181.9,17.6,183,16.8z"/>
	<path class="st0" d="M197.9,35.7c-0.5-0.5-0.8-1.2-0.8-2.2V5.5c0-0.9,0.3-1.7,0.8-2.2c0.5-0.5,1.3-0.8,2.2-0.8h17.4
		c0.9,0,1.7,0.2,2.2,0.6c0.5,0.4,0.8,1,0.8,1.8c0,0.8-0.3,1.4-0.8,1.9c-0.5,0.4-1.2,0.7-2.2,0.7h-14.3v9.4h13.4
		c0.9,0,1.7,0.2,2.2,0.6c0.5,0.4,0.8,1,0.8,1.8c0,0.8-0.3,1.4-0.8,1.8c-0.5,0.4-1.2,0.6-2.2,0.6h-13.4v9.9h14.3
		c0.9,0,1.7,0.2,2.2,0.7c0.5,0.4,0.8,1.1,0.8,1.9c0,0.8-0.3,1.4-0.8,1.8c-0.5,0.4-1.2,0.6-2.2,0.6h-17.4
		C199.2,36.5,198.5,36.2,197.9,35.7z"/>
	<path class="st0" d="M256,34c0,0.7-0.3,1.4-0.9,1.9c-0.6,0.5-1.3,0.8-2,0.8c-0.5,0-1-0.1-1.4-0.4c-0.5-0.3-0.8-0.7-1.1-1.3
		l-2.9-6.5h-17l-2.9,6.5c-0.3,0.6-0.6,1-1.1,1.3s-0.9,0.4-1.5,0.4c-0.7,0-1.4-0.3-2-0.8c-0.6-0.5-0.9-1.1-0.9-1.9
		c0-0.4,0.1-0.8,0.3-1.3l13.3-28.6c0.3-0.6,0.7-1.1,1.3-1.5s1.2-0.5,1.9-0.5s1.3,0.2,1.9,0.5s1,0.8,1.3,1.5l13.4,28.6
		C255.9,33.2,256,33.6,256,34z M232.9,23.7h12.7l-6.4-14.3L232.9,23.7z"/>
	<path class="st0" d="M293.1,3.1c0.5,0.6,0.8,1.3,0.8,2.2v28.5c0,0.9-0.3,1.6-0.8,2.1c-0.5,0.5-1.2,0.8-2,0.8c-0.8,0-1.5-0.3-2-0.8
		c-0.5-0.5-0.7-1.2-0.7-2.1V14l-8.2,15.5c-0.4,0.7-0.8,1.2-1.3,1.6c-0.5,0.3-1,0.5-1.6,0.5s-1.1-0.2-1.6-0.5
		c-0.5-0.3-0.9-0.9-1.3-1.6l-8.2-15.3v19.6c0,0.9-0.2,1.6-0.7,2.1c-0.5,0.5-1.2,0.8-2,0.8c-0.8,0-1.5-0.3-2-0.8
		c-0.5-0.5-0.7-1.2-0.7-2.1V5.4c0-0.9,0.3-1.7,0.8-2.2c0.5-0.6,1.2-0.8,2.1-0.8c1.3,0,2.2,0.7,2.9,2.1l10.7,20.4L288,4.4
		c0.7-1.4,1.7-2.1,2.8-2.1C291.8,2.3,292.5,2.6,293.1,3.1z"/>
	<path class="st0" d="M306,35.9c-2.2-0.7-4-1.5-5.4-2.7c-0.7-0.5-1.1-1.3-1.1-2.3c0-0.7,0.2-1.3,0.6-1.8c0.4-0.5,0.9-0.7,1.4-0.7
		c0.6,0,1.2,0.2,2,0.7c1.4,1,2.8,1.7,4.3,2.2c1.5,0.5,3.2,0.7,5,0.7c2.3,0,4.1-0.4,5.4-1.2s1.9-2,1.9-3.6c0-1.2-0.6-2.2-1.8-2.8
		c-1.2-0.7-3.1-1.3-5.9-1.9c-2.8-0.6-5.1-1.3-6.9-2.1c-1.8-0.8-3.1-1.8-4-3.1c-0.9-1.3-1.3-2.8-1.3-4.8c0-2,0.6-3.8,1.7-5.4
		c1.1-1.6,2.7-2.8,4.7-3.7c2-0.9,4.3-1.3,6.8-1.3c4.6,0,8.3,1.2,11.2,3.7c0.4,0.4,0.7,0.7,0.9,1c0.2,0.3,0.3,0.8,0.3,1.3
		c0,0.7-0.2,1.3-0.6,1.8c-0.4,0.5-0.9,0.7-1.4,0.7c-0.3,0-0.6,0-0.9-0.1c-0.3-0.1-0.6-0.3-1.1-0.5c-1.3-1-2.6-1.7-3.8-2.1
		c-1.2-0.5-2.8-0.7-4.6-0.7c-2.2,0-3.9,0.4-5.2,1.3c-1.3,0.9-1.9,2.1-1.9,3.7c0,1.3,0.6,2.3,1.7,3c1.1,0.7,3,1.4,5.7,2
		c2.9,0.6,5.2,1.4,7,2.1c1.8,0.8,3.1,1.8,4.1,3c0.9,1.2,1.4,2.7,1.4,4.6c0,2-0.6,3.8-1.7,5.3c-1.1,1.5-2.7,2.7-4.7,3.6
		c-2,0.9-4.3,1.3-6.9,1.3C310.5,36.9,308.2,36.6,306,35.9z"/>
</g>
</svg>
