<svg id="bold" enable-background="new 0 0 24 24" height="512" viewBox="0 0 24 24" width="512" xmlns="http://www.w3.org/2000/svg"><path d="m6.266 17.734c-3.76-1.085-6.266-3.221-6.266-5.734 0 6.617 5.383 12 12 12-2.512 0-4.649-2.505-5.734-6.266z"/><path d="m18.232 15.461c2.352-.888 3.768-2.214 3.768-3.461s-1.416-2.573-3.768-3.461c.173 1.093.268 2.252.268 3.461s-.095 2.368-.268 3.461z"/><path d="m16.087 16.087c.261-1.224.413-2.598.413-4.087s-.152-2.863-.413-4.087c-1.224-.261-2.598-.413-4.087-.413s-2.863.152-4.087.413c-.261 1.224-.413 2.598-.413 4.087s.152 2.863.413 4.087c1.224.261 2.598.413 4.087.413s2.863-.152 4.087-.413z"/><path d="m17.734 6.266c3.76 1.085 6.266 3.221 6.266 5.734 0-6.617-5.383-12-12-12 2.512 0 4.649 2.505 5.734 6.266z"/><path d="m6.266 6.266c1.085-3.761 3.222-6.266 5.734-6.266-6.617 0-12 5.383-12 12 0-2.513 2.506-4.649 6.266-5.734z"/><path d="m17.734 17.734c-1.085 3.761-3.222 6.266-5.734 6.266 6.617 0 12-5.383 12-12 0 2.513-2.506 4.649-6.266 5.734z"/><path d="m12 18.5c-1.209 0-2.368-.095-3.461-.268.888 2.352 2.214 3.768 3.461 3.768s2.573-1.416 3.461-3.768c-1.093.173-2.252.268-3.461.268z"/><path d="m15.461 5.768c-.888-2.352-2.214-3.768-3.461-3.768s-2.573 1.416-3.461 3.768c1.093-.173 2.252-.268 3.461-.268s2.368.095 3.461.268z"/><path d="m5.768 8.539c-2.352.888-3.768 2.214-3.768 3.461s1.416 2.573 3.768 3.461c-.173-1.093-.268-2.252-.268-3.461s.095-2.368.268-3.461z"/></svg>